# xmcd CD database file
#
# Track frame offsets:
#	150
#	29352
#	57130
#	81265
#	98979
#	113112
#	128012
#	142987
#
# Disc length: 2108 seconds
#
# Revision: 0
# Processed by: cddbd v1.5.2PL0 Copyright (c) Steve Scherf et al.
# Submitted via: CDex 1.70beta2
#
DISCID=63083a08
DTITLE=Riccardo Zappa - Chatka
DYEAR=1978
DGENRE=New Age
TTITLE0=Emphasis
TTITLE1=St. Dumont
TTITLE2=La Chitarra a Pila
TTITLE3=Chatka
TTITLE4=Vivre
TTITLE5=Eleila
TTITLE6=Piraeus
TTITLE7=Numero Unico
EXTD=YEAR: 1978
EXTT0=
EXTT1=
EXTT2=
EXTT3=
EXTT4=
EXTT5=
EXTT6=
EXTT7=
PLAYORDER=
